<?xml version="1.0" encoding="UTF-8" standalone="no"?>
<svg
   width="11.2889mm"
   height="11.2889mm"
   viewBox="0 0 32 32"
   version="1.2"
   id="svg11"
   sodipodi:docname="marker-bushalt.svg"
   inkscape:version="1.3 (0e150ed6c4, 2023-07-21)"
   xmlns:inkscape="http://www.inkscape.org/namespaces/inkscape"
   xmlns:sodipodi="http://sodipodi.sourceforge.net/DTD/sodipodi-0.dtd"
   xmlns="http://www.w3.org/2000/svg"
   xmlns:svg="http://www.w3.org/2000/svg"
   xmlns:rdf="http://www.w3.org/1999/02/22-rdf-syntax-ns#"
   xmlns:cc="http://creativecommons.org/ns#"
   xmlns:dc="http://purl.org/dc/elements/1.1/">
  <sodipodi:namedview
     id="namedview11"
     pagecolor="#ffffff"
     bordercolor="#000000"
     borderopacity="0.25"
     inkscape:showpageshadow="2"
     inkscape:pageopacity="0.0"
     inkscape:pagecheckerboard="0"
     inkscape:deskcolor="#d1d1d1"
     inkscape:document-units="mm"
     inkscape:zoom="18.210919"
     inkscape:cx="21.333355"
     inkscape:cy="21.333355"
     inkscape:window-width="1920"
     inkscape:window-height="991"
     inkscape:window-x="-9"
     inkscape:window-y="-9"
     inkscape:window-maximized="1"
     inkscape:current-layer="svg11" />
  <title
     id="title1">Qt SVG Document</title>
  <desc
     id="desc1">Generated with Qt</desc>
  <defs
     id="defs1" />
  <g
     fill="none"
     stroke="black"
     stroke-width="1"
     fill-rule="evenodd"
     stroke-linecap="square"
     stroke-linejoin="bevel"
     id="g11">
    <g
       fill="none"
       stroke="#000000"
       stroke-opacity="1"
       stroke-width="1"
       stroke-linecap="square"
       stroke-linejoin="bevel"
       transform="matrix(1,0,0,1,16,16)"
       font-family="MS Shell Dlg 2"
       font-size="7.8"
       font-weight="400"
       font-style="normal"
       id="g1" />
    <g
       fill="none"
       stroke="#000000"
       stroke-opacity="1"
       stroke-width="1"
       stroke-linecap="square"
       stroke-linejoin="bevel"
       transform="matrix(1.33333,0,0,1.33333,16,16)"
       font-family="MS Shell Dlg 2"
       font-size="7.8"
       font-weight="400"
       font-style="normal"
       id="g2" />
    <g
       fill="#ffffff"
       fill-opacity="1"
       stroke="none"
       transform="matrix(0.752594,0,0,0.752594,6.66665,3.99998)"
       font-family="MS Shell Dlg 2"
       font-size="7.8"
       font-weight="400"
       font-style="normal"
       id="g3">
      <path
         vector-effect="none"
         fill-rule="nonzero"
         d="M12.4799,0 C5.59996,0 0,5.51996 0,12.3199 C0,15.6799 1.43999,18.8799 3.83997,21.1998 L11.4399,31.5998 L12.4799,33.0398 L13.5199,31.5998 L21.1198,21.1998 C23.5998,18.8799 24.9598,15.6799 24.9598,12.3199 C25.0398,5.51996 19.3599,0 12.4799,0 "
         id="path2"
         style="fill:#0000aa;fill-opacity:1" />
    </g>
    <g
       fill="#ca4d20"
       fill-opacity="1"
       stroke="none"
       transform="matrix(0.752594,0,0,0.752594,6.66665,3.99998)"
       font-family="MS Shell Dlg 2"
       font-size="7.8"
       font-weight="400"
       font-style="normal"
       id="g4">
      <path
         vector-effect="none"
         fill-rule="nonzero"
         d="M4.79996,20.3998 L12.4799,30.8798 L20.1599,20.3998 C22.3998,18.3199 23.7598,15.5199 23.7598,12.3199 C23.7598,6.15995 18.7199,1.19999 12.4799,1.19999 C6.31995,1.19999 1.27999,6.15995 1.27999,12.3199 C1.27999,15.5199 2.63998,18.3199 4.79996,20.3998 "
         id="path3"
         style="fill:#0000aa;fill-opacity:1" />
    </g>
    <g
       fill="#ffffff"
       fill-opacity="1"
       stroke="none"
       transform="matrix(0.752594,0,0,0.752594,6.66665,3.99998)"
       font-family="MS Shell Dlg 2"
       font-size="7.8"
       font-weight="400"
       font-style="normal"
       id="g5">
      <path
         vector-effect="none"
         fill-rule="nonzero"
         d="M7.91994,17.8399 L7.03995,17.8399 L7.03995,12.1599 L7.59994,8.23994 C7.59994,8.07994 7.67994,7.83994 7.83994,7.67994 C7.91994,7.51994 8.07994,7.43994 8.23994,7.27995 C8.39994,7.19995 8.63994,7.03995 8.79993,6.95995 C9.03993,6.87995 9.19993,6.87995 9.35993,6.79995 C9.91993,6.63995 10.3999,6.55995 10.9599,6.47995 C11.4399,6.39995 11.9999,6.39995 12.4799,6.39995 L12.7199,6.39995 L13.2799,6.39995 C13.2799,6.39995 13.3599,6.39995 13.4399,6.39995 C13.5999,6.39995 13.6799,6.39995 13.8399,6.47995 C13.9999,6.47995 14.0799,6.47995 14.2399,6.47995 C14.3199,6.55995 14.4799,6.55995 14.4799,6.55995 C14.5599,6.55995 14.6399,6.55995 14.7199,6.55995 C14.7999,6.63995 14.8799,6.63995 15.0399,6.63995 C15.1199,6.71995 15.2799,6.71995 15.3599,6.71995 C15.4399,6.79995 15.5199,6.79995 15.5999,6.79995 C15.7599,6.87995 15.9199,6.87995 16.1599,6.95995 C16.3999,7.03995 16.5599,7.11995 16.7199,7.27995 C16.8799,7.35995 17.0399,7.51994 17.1999,7.67994 C17.3599,7.83994 17.4399,7.99994 17.4399,8.15994 L17.9199,12.0799 L17.9199,17.8399 L17.0399,17.8399 L17.0399,18.8799 C17.0399,18.9599 17.0399,19.1199 16.9599,19.1199 C16.9599,19.1999 16.8799,19.2799 16.7999,19.3599 C16.7199,19.3599 16.6399,19.4399 16.5599,19.4399 C16.4799,19.5199 16.3999,19.5199 16.3199,19.5199 C16.0799,19.5199 15.9199,19.4399 15.7599,19.3599 C15.6799,19.2799 15.5999,19.1199 15.5199,18.9599 C15.4399,18.7999 15.4399,18.6399 15.4399,18.3999 L15.4399,17.8399 L9.51993,17.8399 L9.51993,18.9599 C9.51993,19.0399 9.51993,19.1199 9.43993,19.1999 C9.43993,19.2799 9.35993,19.2799 9.27993,19.3599 C9.19993,19.4399 9.11993,19.4399 9.03993,19.4399 C8.95993,19.5199 8.87993,19.5199 8.79993,19.5199 C8.55994,19.5199 8.31994,19.4399 8.23994,19.3599 C8.07994,19.2799 7.99994,19.1199 7.99994,18.9599 C7.91994,18.7999 7.91994,18.6399 7.91994,18.3999 L7.91994,17.8399 M7.99994,12.2399 C7.99994,12.3999 7.99994,12.4799 8.07994,12.6399 C8.15994,12.7199 8.23994,12.7199 8.39994,12.7199 L16.6399,12.7199 C16.6399,12.7199 16.7199,12.7199 16.8799,12.6399 C16.9599,12.6399 17.0399,12.5599 17.0399,12.4799 L17.0399,11.9999 C16.9599,11.5999 16.8799,11.1999 16.8799,10.9599 C16.7999,10.6399 16.7999,10.3199 16.7199,10.0799 C16.7199,9.75993 16.6399,9.51993 16.6399,9.27993 C16.6399,9.27993 16.5599,9.19993 16.5599,9.11993 C16.5599,9.03993 16.5599,9.03993 16.4799,8.95993 C16.4799,8.87993 16.4799,8.79993 16.3999,8.79993 C16.3199,8.71994 16.3199,8.71994 16.2399,8.71994 L8.79993,8.71994 C8.71994,8.71994 8.71994,8.71994 8.63994,8.79993 C8.55994,8.79993 8.55994,8.87993 8.55994,8.95993 C8.47994,9.03993 8.47994,9.11993 8.47994,9.11993 C8.39994,9.19993 8.39994,9.27993 8.39994,9.35993 C8.39994,9.43993 8.31994,9.59993 8.31994,9.91993 C8.23994,10.1599 8.23994,10.3999 8.23994,10.7199 C8.15994,11.0399 8.15994,11.2799 8.07994,11.5199 C8.07994,11.8399 7.99994,11.9999 7.99994,12.0799 C7.99994,12.0799 7.99994,12.1599 7.99994,12.1599 C7.99994,12.2399 7.99994,12.2399 7.99994,12.2399 M7.99994,15.3599 C7.99994,15.5999 8.07994,15.7599 8.23994,15.9199 C8.31994,15.9999 8.55994,16.0799 8.71994,16.0799 C8.95993,16.0799 9.19993,15.9999 9.27993,15.9199 C9.43993,15.7599 9.43993,15.5999 9.43993,15.3599 C9.43993,15.1199 9.35993,14.9599 9.27993,14.7999 C9.11993,14.7199 8.95993,14.6399 8.71994,14.6399 C8.55994,14.6399 8.39994,14.7199 8.23994,14.8799 C8.07994,14.9599 7.99994,15.1999 7.99994,15.3599 M15.5199,15.3599 C15.5199,15.5999 15.5999,15.7599 15.7599,15.9199 C15.8399,15.9999 16.0799,16.0799 16.2399,16.0799 C16.4799,16.0799 16.6399,16.0799 16.7999,15.9199 C16.9599,15.7599 17.0399,15.5999 17.0399,15.3599 C17.0399,15.1999 16.9599,15.0399 16.7999,14.8799 C16.6399,14.7199 16.4799,14.6399 16.2399,14.6399 C16.0799,14.6399 15.8399,14.7199 15.7599,14.8799 C15.5999,14.9599 15.5199,15.1999 15.5199,15.3599 "
         id="path4" />
    </g>
    <g
       fill="none"
       stroke="#ffffff"
       stroke-opacity="1"
       stroke-width="0.239998"
       stroke-linecap="butt"
       stroke-linejoin="miter"
       stroke-miterlimit="4"
       transform="matrix(0.752594,0,0,0.752594,6.66665,3.99998)"
       font-family="MS Shell Dlg 2"
       font-size="7.8"
       font-weight="400"
       font-style="normal"
       id="g6">
      <path
         vector-effect="none"
         fill-rule="nonzero"
         d="M7.91994,17.8399 L7.03995,17.8399 L7.03995,12.1599 L7.59994,8.23994 C7.59994,8.07994 7.67994,7.83994 7.83994,7.67994 C7.91994,7.51994 8.07994,7.43994 8.23994,7.27995 C8.39994,7.19995 8.63994,7.03995 8.79993,6.95995 C9.03993,6.87995 9.19993,6.87995 9.35993,6.79995 C9.91993,6.63995 10.3999,6.55995 10.9599,6.47995 C11.4399,6.39995 11.9999,6.39995 12.4799,6.39995 L12.7199,6.39995 L13.2799,6.39995 C13.2799,6.39995 13.3599,6.39995 13.4399,6.39995 C13.5999,6.39995 13.6799,6.39995 13.8399,6.47995 C13.9999,6.47995 14.0799,6.47995 14.2399,6.47995 C14.3199,6.55995 14.4799,6.55995 14.4799,6.55995 C14.5599,6.55995 14.6399,6.55995 14.7199,6.55995 C14.7999,6.63995 14.8799,6.63995 15.0399,6.63995 C15.1199,6.71995 15.2799,6.71995 15.3599,6.71995 C15.4399,6.79995 15.5199,6.79995 15.5999,6.79995 C15.7599,6.87995 15.9199,6.87995 16.1599,6.95995 C16.3999,7.03995 16.5599,7.11995 16.7199,7.27995 C16.8799,7.35995 17.0399,7.51994 17.1999,7.67994 C17.3599,7.83994 17.4399,7.99994 17.4399,8.15994 L17.9199,12.0799 L17.9199,17.8399 L17.0399,17.8399 L17.0399,18.8799 C17.0399,18.9599 17.0399,19.1199 16.9599,19.1199 C16.9599,19.1999 16.8799,19.2799 16.7999,19.3599 C16.7199,19.3599 16.6399,19.4399 16.5599,19.4399 C16.4799,19.5199 16.3999,19.5199 16.3199,19.5199 C16.0799,19.5199 15.9199,19.4399 15.7599,19.3599 C15.6799,19.2799 15.5999,19.1199 15.5199,18.9599 C15.4399,18.7999 15.4399,18.6399 15.4399,18.3999 L15.4399,17.8399 L9.51993,17.8399 L9.51993,18.9599 C9.51993,19.0399 9.51993,19.1199 9.43993,19.1999 C9.43993,19.2799 9.35993,19.2799 9.27993,19.3599 C9.19993,19.4399 9.11993,19.4399 9.03993,19.4399 C8.95993,19.5199 8.87993,19.5199 8.79993,19.5199 C8.55994,19.5199 8.31994,19.4399 8.23994,19.3599 C8.07994,19.2799 7.99994,19.1199 7.99994,18.9599 C7.91994,18.7999 7.91994,18.6399 7.91994,18.3999 L7.91994,17.8399 M7.99994,12.2399 C7.99994,12.3999 7.99994,12.4799 8.07994,12.6399 C8.15994,12.7199 8.23994,12.7199 8.39994,12.7199 L16.6399,12.7199 C16.6399,12.7199 16.7199,12.7199 16.8799,12.6399 C16.9599,12.6399 17.0399,12.5599 17.0399,12.4799 L17.0399,11.9999 C16.9599,11.5999 16.8799,11.1999 16.8799,10.9599 C16.7999,10.6399 16.7999,10.3199 16.7199,10.0799 C16.7199,9.75993 16.6399,9.51993 16.6399,9.27993 C16.6399,9.27993 16.5599,9.19993 16.5599,9.11993 C16.5599,9.03993 16.5599,9.03993 16.4799,8.95993 C16.4799,8.87993 16.4799,8.79993 16.3999,8.79993 C16.3199,8.71994 16.3199,8.71994 16.2399,8.71994 L8.79993,8.71994 C8.71994,8.71994 8.71994,8.71994 8.63994,8.79993 C8.55994,8.79993 8.55994,8.87993 8.55994,8.95993 C8.47994,9.03993 8.47994,9.11993 8.47994,9.11993 C8.39994,9.19993 8.39994,9.27993 8.39994,9.35993 C8.39994,9.43993 8.31994,9.59993 8.31994,9.91993 C8.23994,10.1599 8.23994,10.3999 8.23994,10.7199 C8.15994,11.0399 8.15994,11.2799 8.07994,11.5199 C8.07994,11.8399 7.99994,11.9999 7.99994,12.0799 C7.99994,12.0799 7.99994,12.1599 7.99994,12.1599 C7.99994,12.2399 7.99994,12.2399 7.99994,12.2399 M7.99994,15.3599 C7.99994,15.5999 8.07994,15.7599 8.23994,15.9199 C8.31994,15.9999 8.55994,16.0799 8.71994,16.0799 C8.95993,16.0799 9.19993,15.9999 9.27993,15.9199 C9.43993,15.7599 9.43993,15.5999 9.43993,15.3599 C9.43993,15.1199 9.35993,14.9599 9.27993,14.7999 C9.11993,14.7199 8.95993,14.6399 8.71994,14.6399 C8.55994,14.6399 8.39994,14.7199 8.23994,14.8799 C8.07994,14.9599 7.99994,15.1999 7.99994,15.3599 M15.5199,15.3599 C15.5199,15.5999 15.5999,15.7599 15.7599,15.9199 C15.8399,15.9999 16.0799,16.0799 16.2399,16.0799 C16.4799,16.0799 16.6399,16.0799 16.7999,15.9199 C16.9599,15.7599 17.0399,15.5999 17.0399,15.3599 C17.0399,15.1999 16.9599,15.0399 16.7999,14.8799 C16.6399,14.7199 16.4799,14.6399 16.2399,14.6399 C16.0799,14.6399 15.8399,14.7199 15.7599,14.8799 C15.5999,14.9599 15.5199,15.1999 15.5199,15.3599 "
         id="path5" />
    </g>
    <g
       fill="#ca4d20"
       fill-opacity="1"
       stroke="none"
       transform="matrix(0.752594,0,0,0.752594,6.66665,3.99998)"
       font-family="MS Shell Dlg 2"
       font-size="7.8"
       font-weight="400"
       font-style="normal"
       id="g7">
      <path
         vector-effect="none"
         fill-rule="nonzero"
         d="M15.3599,7.59994 C15.3599,7.83994 15.1999,7.99994 14.9599,7.99994 L9.99993,7.99994 C9.83993,7.99994 9.59993,7.83994 9.59993,7.59994 C9.59993,7.35995 9.83993,7.11995 9.99993,7.11995 L14.9599,7.11995 C15.1999,7.11995 15.3599,7.35995 15.3599,7.59994 "
         id="path6"
         style="fill:#0000aa;fill-opacity:1" />
    </g>
    <g
       fill="none"
       stroke="#000000"
       stroke-opacity="1"
       stroke-width="1"
       stroke-linecap="square"
       stroke-linejoin="bevel"
       transform="matrix(1.33333,0,0,1.33333,16,16)"
       font-family="MS Shell Dlg 2"
       font-size="7.8"
       font-weight="400"
       font-style="normal"
       id="g8" />
    <g
       fill="none"
       stroke="#000000"
       stroke-opacity="1"
       stroke-width="1"
       stroke-linecap="square"
       stroke-linejoin="bevel"
       transform="matrix(1,0,0,1,16,16)"
       font-family="MS Shell Dlg 2"
       font-size="7.8"
       font-weight="400"
       font-style="normal"
       id="g9" />
    <g
       fill="none"
       stroke="#000000"
       stroke-opacity="1"
       stroke-width="1"
       stroke-linecap="square"
       stroke-linejoin="bevel"
       transform="matrix(1,0,0,1,0,0)"
       font-family="MS Shell Dlg 2"
       font-size="7.8"
       font-weight="400"
       font-style="normal"
       id="g10" />
  </g>
  <metadata
     id="metadata11">
    <rdf:RDF>
      <cc:Work
         rdf:about="">
        <dc:title>Qt SVG Document</dc:title>
      </cc:Work>
    </rdf:RDF>
  </metadata>
</svg>
