<?xml version="1.0" encoding="UTF-8" standalone="no"?>
<!-- Generator: Adobe Illustrator 16.0.2, SVG Export Plug-In . SVG Version: 6.00 Build 0)  -->

<svg
   version="1.1"
   id="svg2"
   sodipodi:docname="AB3a.svg"
   inkscape:version="1.3 (0e150ed6c4, 2023-07-21)"
   x="0px"
   y="0px"
   width="576.875px"
   height="619.557px"
   viewBox="0 0 576.875 619.557"
   style="enable-background:new 0 0 576.875 619.557;"
   xml:space="preserve"
   inkscape:export-filename="C:\Documents and Settings\bertrand.bouteilles\Bureau\Panneaux\A - Route\2_intersection-priorite\AB3a.png"
   inkscape:export-xdpi="150"
   inkscape:export-ydpi="150"
   xmlns:inkscape="http://www.inkscape.org/namespaces/inkscape"
   xmlns:sodipodi="http://sodipodi.sourceforge.net/DTD/sodipodi-0.dtd"
   xmlns="http://www.w3.org/2000/svg"
   xmlns:svg="http://www.w3.org/2000/svg"
   xmlns:rdf="http://www.w3.org/1999/02/22-rdf-syntax-ns#"
   xmlns:cc="http://creativecommons.org/ns#"
   xmlns:dc="http://purl.org/dc/elements/1.1/"><metadata
   id="metadata48"><rdf:RDF><cc:Work
       rdf:about=""><dc:format>image/svg+xml</dc:format><dc:type
         rdf:resource="http://purl.org/dc/dcmitype/StillImage" /><dc:title /></cc:Work></rdf:RDF></metadata><defs
   id="defs46" />&#10;<sodipodi:namedview
   id="namedview42"
   inkscape:current-layer="svg2"
   inkscape:window-y="-9"
   inkscape:window-x="-9"
   fit-margin-bottom="0.2"
   fit-margin-right="0.2"
   inkscape:window-height="991"
   inkscape:window-width="1920"
   inkscape:pageshadow="2"
   inkscape:pageopacity="0"
   borderopacity="1"
   inkscape:cy="277.34465"
   fit-margin-left="0.2"
   bordercolor="#666666"
   pagecolor="#ffffff"
   showgrid="false"
   inkscape:cx="301.07467"
   inkscape:zoom="1.011377"
   guidetolerance="10"
   fit-margin-top="0.2"
   objecttolerance="10"
   gridtolerance="10"
   inkscape:window-maximized="1"
   inkscape:showpageshadow="2"
   inkscape:pagecheckerboard="0"
   inkscape:deskcolor="#d1d1d1">&#10;	</sodipodi:namedview>&#10;<path
   id="path8"
   inkscape:connector-curvature="0"
   style="fill:#ffffff;stroke:#000000;stroke-width:2;stroke-linecap:round;stroke-linejoin:round;stroke-miterlimit:4;stroke-dasharray:none"
   d="m 5.60975,103.521 256.011,443.423 c 5.531,9.58 15.754,15.482 26.816,15.482 11.063,0 21.283,-5.902 26.815,-15.482 l 256.011,-443.423 c 5.531,-9.577997 5.531,-21.383997 0,-30.963997 -5.531,-9.581 -15.752,-15.481 -26.814,-15.481 h -512.022 c -11.063,0 -21.285,5.899 -26.816,15.48 -5.53000003,9.581 -5.53100003,21.385 -0.001,30.964997 z" />&#10;<path
   id="path10"
   inkscape:connector-curvature="0"
   style="fill:#ff0000"
   d="M 560.58375,97.250003 304.48175,540.831 c -3.312,5.73 -9.425,9.265 -16.044,9.265 -6.619,0 -12.734,-3.531 -16.044,-9.265 L 16.29175,97.250003 c -3.31,-5.731 -3.31,-12.794 0,-18.525 3.31,-5.73 9.425,-9.264 16.044,-9.264 h 512.204 c 6.618,0 12.733,3.531 16.046,9.265 3.307,5.73 3.307,12.792 -0.002,18.524 z" />&#10;<polygon
   id="polygon40"
   style="fill:#ffffff"
   points="287.502,401.597 479.246,69.488 95.758,69.488 "
   transform="translate(0.93574997,55.656003)" />&#10;&#10;&#10;&#10;</svg>
