<?xml version="1.0" encoding="UTF-8" standalone="no"?>
<svg
   width="11.2889mm"
   height="11.2889mm"
   viewBox="0 0 32 32"
   version="1.2"
   id="svg7"
   sodipodi:docname="Hut_1.svg"
   inkscape:version="1.3 (0e150ed6c4, 2023-07-21)"
   xmlns:inkscape="http://www.inkscape.org/namespaces/inkscape"
   xmlns:sodipodi="http://sodipodi.sourceforge.net/DTD/sodipodi-0.dtd"
   xmlns="http://www.w3.org/2000/svg"
   xmlns:svg="http://www.w3.org/2000/svg"
   xmlns:rdf="http://www.w3.org/1999/02/22-rdf-syntax-ns#"
   xmlns:cc="http://creativecommons.org/ns#"
   xmlns:dc="http://purl.org/dc/elements/1.1/">
  <sodipodi:namedview
     id="namedview7"
     pagecolor="#ffffff"
     bordercolor="#000000"
     borderopacity="0.25"
     inkscape:showpageshadow="2"
     inkscape:pageopacity="0.0"
     inkscape:pagecheckerboard="0"
     inkscape:deskcolor="#d1d1d1"
     inkscape:document-units="mm"
     inkscape:zoom="18.210919"
     inkscape:cx="21.278443"
     inkscape:cy="21.278443"
     inkscape:window-width="1920"
     inkscape:window-height="991"
     inkscape:window-x="-9"
     inkscape:window-y="-9"
     inkscape:window-maximized="1"
     inkscape:current-layer="svg7" />
  <title
     id="title1">Qt SVG Document</title>
  <desc
     id="desc1">Generated with Qt</desc>
  <defs
     id="defs1" />
  <g
     fill="none"
     stroke="black"
     stroke-width="1"
     fill-rule="evenodd"
     stroke-linecap="square"
     stroke-linejoin="bevel"
     id="g7"
     style="fill:#e3ae00;fill-opacity:1">
    <g
       fill="none"
       stroke="#000000"
       stroke-opacity="1"
       stroke-width="1"
       stroke-linecap="square"
       stroke-linejoin="bevel"
       transform="matrix(1,0,0,1,16,16)"
       font-family="MS Shell Dlg 2"
       font-size="7.8"
       font-weight="400"
       font-style="normal"
       id="g1"
       style="fill:#e3ae00;fill-opacity:1" />
    <g
       fill="none"
       stroke="#000000"
       stroke-opacity="1"
       stroke-width="1"
       stroke-linecap="square"
       stroke-linejoin="bevel"
       transform="matrix(1.33333,0,0,1.33333,16,16)"
       font-family="MS Shell Dlg 2"
       font-size="7.8"
       font-weight="400"
       font-style="normal"
       id="g2"
       style="fill:#e3ae00;fill-opacity:1" />
    <g
       fill="#000000"
       fill-opacity="1"
       stroke="none"
       transform="matrix(1.32283,0,0,1.32283,6.07874,6.07874)"
       font-family="MS Shell Dlg 2"
       font-size="7.8"
       font-weight="400"
       font-style="normal"
       id="g3"
       style="fill:#e3ae00;fill-opacity:1">
      <path
         vector-effect="none"
         fill-rule="nonzero"
         d="M9.15,8.82 L11.13,9.93 L12.2,8.86 L13,9.12 L13,15 L9,15 L9,11 L6,11 L6,15 L2,15 L2,9.12 L2.8,8.86 L3.87,9.93 L5.85,8.82 L7.5,10.61 L9.15,8.82 M9.15,4.91 L11.15,5.91 L11.85,5.21 L15,9 L12,8 L11,9 L9,7.88 L7.5,9.5 L6,7.88 L4,9 L3,8 L0,9 L3.15,5.22 L3.85,5.91 L5.85,4.91 L7.5,6.56 L9.15,4.91 M7.5,0 L12,4 L11,5 L9,4 L7.5,5.5 L6,4 L4,5 L3,4 L7.5,0"
         id="path2"
         style="fill:#e3ae00;fill-opacity:1" />
    </g>
    <g
       fill="none"
       stroke="#000000"
       stroke-opacity="1"
       stroke-width="1"
       stroke-linecap="square"
       stroke-linejoin="bevel"
       transform="matrix(1.33333,0,0,1.33333,16,16)"
       font-family="MS Shell Dlg 2"
       font-size="7.8"
       font-weight="400"
       font-style="normal"
       id="g4"
       style="fill:#e3ae00;fill-opacity:1" />
    <g
       fill="none"
       stroke="#000000"
       stroke-opacity="1"
       stroke-width="1"
       stroke-linecap="square"
       stroke-linejoin="bevel"
       transform="matrix(1,0,0,1,16,16)"
       font-family="MS Shell Dlg 2"
       font-size="7.8"
       font-weight="400"
       font-style="normal"
       id="g5"
       style="fill:#e3ae00;fill-opacity:1" />
    <g
       fill="none"
       stroke="#000000"
       stroke-opacity="1"
       stroke-width="1"
       stroke-linecap="square"
       stroke-linejoin="bevel"
       transform="matrix(1,0,0,1,0,0)"
       font-family="MS Shell Dlg 2"
       font-size="7.8"
       font-weight="400"
       font-style="normal"
       id="g6"
       style="fill:#e3ae00;fill-opacity:1" />
  </g>
  <metadata
     id="metadata7">
    <rdf:RDF>
      <cc:Work
         rdf:about="">
        <dc:title>Qt SVG Document</dc:title>
      </cc:Work>
    </rdf:RDF>
  </metadata>
</svg>
