<?xml version="1.0" encoding="UTF-8" standalone="no"?>
<svg width="11.2889mm" height="11.2889mm"
 viewBox="0 0 32 32"
 xmlns="http://www.w3.org/2000/svg" xmlns:xlink="http://www.w3.org/1999/xlink"  version="1.2" baseProfile="tiny">
<title>Qt SVG Document</title>
<desc>Generated with Qt</desc>
<defs>
</defs>
<g fill="none" stroke="black" stroke-width="1" fill-rule="evenodd" stroke-linecap="square" stroke-linejoin="bevel" >

<g fill="none" stroke="#000000" stroke-opacity="1" stroke-width="1" stroke-linecap="square" stroke-linejoin="bevel" transform="matrix(1,0,0,1,16,16)"
font-family="MS Shell Dlg 2" font-size="7.8" font-weight="400" font-style="normal" 
>
</g>

<g fill="none" stroke="#000000" stroke-opacity="1" stroke-width="1" stroke-linecap="square" stroke-linejoin="bevel" transform="matrix(1.33333,0,0,1.33333,16,16)"
font-family="MS Shell Dlg 2" font-size="7.8" font-weight="400" font-style="normal" 
>
</g>

<g fill="#000000" fill-opacity="1" stroke="none" transform="matrix(1.32283,0,0,1.32283,6.07874,6.07874)"
font-family="MS Shell Dlg 2" font-size="7.8" font-weight="400" font-style="normal" 
>
<path vector-effect="none" fill-rule="nonzero" d="M13,13 L13,7.5 C13,7.22 12.78,7 12.5,7 L2.5,7 C2.22,7 2,7.22 2,7.5 L2,13 L0,13 L0,9.5 C0,5.36 3.36,2 7.5,2 C11.64,2 15,5.36 15,9.5 L15,13 L13,13 M3.5,5 C3.22,5 3,5.22 3,5.5 C3,5.78 3.22,6 3.5,6 L6.5,6 C6.78,6 7,5.78 7,5.5 C7,5.22 6.78,5 6.5,5 L3.5,5 M8.5,5 C8.22,5 8,5.22 8,5.5 C8,5.78 8.22,6 8.5,6 L11.5,6 C11.78,6 12,5.78 12,5.5 C12,5.22 11.78,5 11.5,5 L8.5,5 M3,12 L7,12 L7,13 L3,13 L3,12 M3,10 L7,10 L7,11 L3,11 L3,10 M3,8 L7,8 L7,9 L3,9 L3,8 M8,8 L12,8 L12,9 L8,9 L8,8 M8,10 L12,10 L12,11 L8,11 L8,10 M8,12 L12,12 L12,13 L8,13 L8,12"/>
</g>

<g fill="none" stroke="#000000" stroke-opacity="1" stroke-width="1" stroke-linecap="square" stroke-linejoin="bevel" transform="matrix(1.33333,0,0,1.33333,16,16)"
font-family="MS Shell Dlg 2" font-size="7.8" font-weight="400" font-style="normal" 
>
</g>

<g fill="none" stroke="#000000" stroke-opacity="1" stroke-width="1" stroke-linecap="square" stroke-linejoin="bevel" transform="matrix(1,0,0,1,16,16)"
font-family="MS Shell Dlg 2" font-size="7.8" font-weight="400" font-style="normal" 
>
</g>

<g fill="none" stroke="#000000" stroke-opacity="1" stroke-width="1" stroke-linecap="square" stroke-linejoin="bevel" transform="matrix(1,0,0,1,0,0)"
font-family="MS Shell Dlg 2" font-size="7.8" font-weight="400" font-style="normal" 
>
</g>
</g>
</svg>
