<?xml version="1.0" encoding="UTF-8" standalone="no"?>
<svg width="11.2889mm" height="11.2889mm"
 viewBox="0 0 32 32"
 xmlns="http://www.w3.org/2000/svg" xmlns:xlink="http://www.w3.org/1999/xlink"  version="1.2" baseProfile="tiny">
<title>Qt SVG Document</title>
<desc>Generated with Qt</desc>
<defs>
</defs>
<g fill="none" stroke="black" stroke-width="1" fill-rule="evenodd" stroke-linecap="square" stroke-linejoin="bevel" >

<g fill="none" stroke="#000000" stroke-opacity="1" stroke-width="1" stroke-linecap="square" stroke-linejoin="bevel" transform="matrix(1,0,0,1,16,16)"
font-family="MS Shell Dlg 2" font-size="7.8" font-weight="400" font-style="normal" 
>
</g>

<g fill="none" stroke="#000000" stroke-opacity="1" stroke-width="1" stroke-linecap="square" stroke-linejoin="bevel" transform="matrix(1.33333,0,0,1.33333,16,16)"
font-family="MS Shell Dlg 2" font-size="7.8" font-weight="400" font-style="normal" 
>
</g>

<g fill="#000000" fill-opacity="1" stroke="none" transform="matrix(1.32283,0,0,1.32283,6.07874,6.07874)"
font-family="MS Shell Dlg 2" font-size="7.8" font-weight="400" font-style="normal" 
>
<path vector-effect="none" fill-rule="nonzero" d="M6.02,8.425 C5.8477,8.55046 5.69299,8.69845 5.56,8.865 L1.01,5.365 C1.44357,4.79643 1.95143,4.28857 2.52,3.855 L6.02,8.425 M12.48,3.865 L8.98,8.415 C9.14933,8.54433 9.30067,8.69567 9.43,8.865 L13.99,5.365 C13.5562,4.79954 13.0483,4.29501 12.48,3.865 M7.3042,10.0129 C6.48285,10.121 5.90465,10.8745 6.01276,11.6958 C6.12087,12.5172 6.87434,13.0954 7.69569,12.9872 C8.51704,12.8791 9.09522,12.1256 8.9871,11.3043 C8.87898,10.483 8.12553,9.9048 7.3042,10.0129 M6.43,2.235 C5.72171,2.3248 5.02879,2.5098 4.37,2.785 L6.57,8.105 C6.76327,8.01699 6.96907,7.95963 7.18,7.935 L6.43,2.235 M8.57,2.245 L7.82,7.935 C8.02929,7.96226 8.23427,8.01603 8.43,8.095 L10.63,2.795 C9.97437,2.51063 9.28012,2.32527 8.57,2.245 "/>
</g>

<g fill="none" stroke="#000000" stroke-opacity="1" stroke-width="1" stroke-linecap="square" stroke-linejoin="bevel" transform="matrix(1.33333,0,0,1.33333,16,16)"
font-family="MS Shell Dlg 2" font-size="7.8" font-weight="400" font-style="normal" 
>
</g>

<g fill="none" stroke="#000000" stroke-opacity="1" stroke-width="1" stroke-linecap="square" stroke-linejoin="bevel" transform="matrix(1,0,0,1,16,16)"
font-family="MS Shell Dlg 2" font-size="7.8" font-weight="400" font-style="normal" 
>
</g>

<g fill="none" stroke="#000000" stroke-opacity="1" stroke-width="1" stroke-linecap="square" stroke-linejoin="bevel" transform="matrix(1,0,0,1,0,0)"
font-family="MS Shell Dlg 2" font-size="7.8" font-weight="400" font-style="normal" 
>
</g>
</g>
</svg>
