<?xml version="1.0" encoding="UTF-8" standalone="no"?>
<svg width="11.2889mm" height="11.2889mm"
 viewBox="0 0 32 32"
 xmlns="http://www.w3.org/2000/svg" xmlns:xlink="http://www.w3.org/1999/xlink"  version="1.2" baseProfile="tiny">
<title>Qt SVG Document</title>
<desc>Generated with Qt</desc>
<defs>
</defs>
<g fill="none" stroke="black" stroke-width="1" fill-rule="evenodd" stroke-linecap="square" stroke-linejoin="bevel" >

<g fill="none" stroke="#000000" stroke-opacity="1" stroke-width="1" stroke-linecap="square" stroke-linejoin="bevel" transform="matrix(1,0,0,1,16,16)"
font-family="MS Shell Dlg 2" font-size="7.8" font-weight="400" font-style="normal" 
>
</g>

<g fill="none" stroke="#000000" stroke-opacity="1" stroke-width="1" stroke-linecap="square" stroke-linejoin="bevel" transform="matrix(1.33333,0,0,1.33333,16,16)"
font-family="MS Shell Dlg 2" font-size="7.8" font-weight="400" font-style="normal" 
>
</g>

<g fill="#000000" fill-opacity="1" stroke="none" transform="matrix(1.32283,0,0,1.32283,6.07874,6.07874)"
font-family="MS Shell Dlg 2" font-size="7.8" font-weight="400" font-style="normal" 
>
<path vector-effect="none" fill-rule="nonzero" d="M9,2.25 C9,2.94 8.44,3.5 7.75,3.5 C7.06,3.5 6.5,2.94 6.5,2.25 C6.5,1.56 7.06,1 7.75,1 C8.44,1 9,1.56 9,2.25 M6.5,3.75 L7.25,3.75 L11.5,6.73 L11.5,7.42 L11,7.42 L8.5,5.64 L8.5,7.42 L9.5,9.25 L10.5,11.54 L10,12 L9.5,12 L8.5,9.71 L6.5,6.96 L6.5,4.82 L5.25,5.81 L4.25,7.42 L3.5,7.42 L3.5,6.96 L4.25,5.58 L6.5,3.75 M6.92,8.52 L5.77,12 L5.25,12 L4.75,11.54 L6.16,7.67 L6.92,8.52 M2,12.5 L5,12.5 L4,14 L1,14 L2,12.5 M6.5,12.5 L8.5,12.5 L9.5,14 L5.5,14 L6.5,12.5 M13,12.5 L14,14 L11,14 L10,12.5 L13,12.5"/>
</g>

<g fill="none" stroke="#000000" stroke-opacity="1" stroke-width="1" stroke-linecap="square" stroke-linejoin="bevel" transform="matrix(1.33333,0,0,1.33333,16,16)"
font-family="MS Shell Dlg 2" font-size="7.8" font-weight="400" font-style="normal" 
>
</g>

<g fill="none" stroke="#000000" stroke-opacity="1" stroke-width="1" stroke-linecap="square" stroke-linejoin="bevel" transform="matrix(1,0,0,1,16,16)"
font-family="MS Shell Dlg 2" font-size="7.8" font-weight="400" font-style="normal" 
>
</g>

<g fill="none" stroke="#000000" stroke-opacity="1" stroke-width="1" stroke-linecap="square" stroke-linejoin="bevel" transform="matrix(1,0,0,1,0,0)"
font-family="MS Shell Dlg 2" font-size="7.8" font-weight="400" font-style="normal" 
>
</g>
</g>
</svg>
