<?xml version="1.0" encoding="UTF-8" standalone="no"?>
<svg width="11.2889mm" height="11.2889mm"
 viewBox="0 0 32 32"
 xmlns="http://www.w3.org/2000/svg" xmlns:xlink="http://www.w3.org/1999/xlink"  version="1.2" baseProfile="tiny">
<title>Qt SVG Document</title>
<desc>Generated with Qt</desc>
<defs>
</defs>
<g fill="none" stroke="black" stroke-width="1" fill-rule="evenodd" stroke-linecap="square" stroke-linejoin="bevel" >

<g fill="none" stroke="#000000" stroke-opacity="1" stroke-width="1" stroke-linecap="square" stroke-linejoin="bevel" transform="matrix(1,0,0,1,16,16)"
font-family="MS Shell Dlg 2" font-size="7.8" font-weight="400" font-style="normal" 
>
</g>

<g fill="none" stroke="#000000" stroke-opacity="1" stroke-width="1" stroke-linecap="square" stroke-linejoin="bevel" transform="matrix(1.33333,0,0,1.33333,16,16)"
font-family="MS Shell Dlg 2" font-size="7.8" font-weight="400" font-style="normal" 
>
</g>

<g fill="#006ec9" fill-opacity="1" stroke="none" transform="matrix(0.564444,0,0,0.564444,5,4)"
font-family="MS Shell Dlg 2" font-size="7.8" font-weight="400" font-style="normal" 
>
<path vector-effect="none" fill-rule="nonzero" d="M19.0399,5.51996 C7.19995,5.51996 2.39998,11.6799 2.39998,19.8399 C2.39998,23.3598 3.35998,26.4798 5.19996,28.8798 C10.9599,36.9597 18.2399,40.4797 18.2399,40.4797 C18.2399,40.4797 18.6399,40.7197 19.0399,40.7197 C19.3599,40.7197 19.7599,40.4797 19.7599,40.4797 C19.8399,40.3997 27.0398,36.9597 32.7998,28.8798 C34.6397,26.4798 35.5997,23.3598 35.5997,19.8399 C35.5997,11.6799 30.7998,5.51996 19.0399,5.51996 "/>
</g>

<g fill="none" stroke="#ffffff" stroke-opacity="1" stroke-width="1.03999" stroke-linecap="butt" stroke-linejoin="miter" stroke-miterlimit="4" transform="matrix(0.564444,0,0,0.564444,5,4)"
font-family="MS Shell Dlg 2" font-size="7.8" font-weight="400" font-style="normal" 
>
<path vector-effect="none" fill-rule="nonzero" d="M19.0399,5.51996 C7.19995,5.51996 2.39998,11.6799 2.39998,19.8399 C2.39998,23.3598 3.35998,26.4798 5.19996,28.8798 C10.9599,36.9597 18.2399,40.4797 18.2399,40.4797 C18.2399,40.4797 18.6399,40.7197 19.0399,40.7197 C19.3599,40.7197 19.7599,40.4797 19.7599,40.4797 C19.8399,40.3997 27.0398,36.9597 32.7998,28.8798 C34.6397,26.4798 35.5997,23.3598 35.5997,19.8399 C35.5997,11.6799 30.7998,5.51996 19.0399,5.51996 "/>
</g>

<g fill="#ffffff" fill-opacity="1" stroke="none" transform="matrix(0.564444,0,0,0.564444,5,4)"
font-family="MS Shell Dlg 2" font-size="7.8" font-weight="400" font-style="normal" 
>
<path vector-effect="none" fill-rule="nonzero" d="M25.1998,17.7599 C25.1998,17.7599 23.4398,20.0799 23.4398,21.9998 C23.4398,23.1198 23.9998,24.1598 25.1198,24.1598 C26.2398,24.1598 27.0398,23.0398 27.0398,21.9998 C27.0398,19.9999 25.1998,17.7599 25.1998,17.7599 M25.7598,23.5998 C25.1198,23.8398 24.5598,23.1198 25.3598,22.3198 C26.3198,21.4398 25.9998,19.9199 25.5198,18.5599 C25.5198,18.5599 27.9198,22.7198 25.7598,23.5998 "/>
</g>

<g fill="#ffffff" fill-opacity="1" stroke="none" transform="matrix(0.564444,0,0,0.564444,5,4)"
font-family="MS Shell Dlg 2" font-size="7.8" font-weight="400" font-style="normal" 
>
<path vector-effect="none" fill-rule="nonzero" d="M25.1998,9.99993 L14.8799,9.99993 C14.2399,9.99993 13.6799,10.5599 13.6799,11.1999 L13.6799,28.7198 L11.7599,28.7198 L11.7599,32.2398 L14.8799,32.2398 L17.1199,32.2398 L17.9999,32.2398 L17.9999,28.7198 L16.0799,28.7198 L16.0799,12.3999 L23.9998,12.3999 L23.9998,16.3999 L26.3998,16.3999 L26.3998,11.1999 C26.3998,10.5599 25.9198,9.99993 25.1998,9.99993 "/>
</g>

<g fill="none" stroke="#000000" stroke-opacity="1" stroke-width="1" stroke-linecap="square" stroke-linejoin="bevel" transform="matrix(1.33333,0,0,1.33333,16,16)"
font-family="MS Shell Dlg 2" font-size="7.8" font-weight="400" font-style="normal" 
>
</g>

<g fill="none" stroke="#000000" stroke-opacity="1" stroke-width="1" stroke-linecap="square" stroke-linejoin="bevel" transform="matrix(1,0,0,1,16,16)"
font-family="MS Shell Dlg 2" font-size="7.8" font-weight="400" font-style="normal" 
>
</g>

<g fill="none" stroke="#000000" stroke-opacity="1" stroke-width="1" stroke-linecap="square" stroke-linejoin="bevel" transform="matrix(1,0,0,1,0,0)"
font-family="MS Shell Dlg 2" font-size="7.8" font-weight="400" font-style="normal" 
>
</g>
</g>
</svg>
